# xmcd CD database file
#
# Track frame offsets:
#	150
#	22180
#	35290
#	56707
#	74475
#	89659
#	106772
#	121882
#	141667
#	161597
#	179365
#	194264
#	210450
#	229979
#	252093
#	268306
#	292275
#	308789
#	327985
#	342351
#
# Disc length: 4787 seconds
#
# Revision: 0
# Processed by: cddbd v1.5.2PL0 Copyright (c) Steve Scherf et al.
# Submitted via: CDex 1.51
#
DISCID=3f12b114
DTITLE=Spirit of Salsa - Spirit of Salsa - Fiesta
DYEAR=2015
DGENRE=Salsa
TTITLE0=Ray Barretto - Ay No
TTITLE1=Compay Segundo - Jardinero De Amor
TTITLE2=Fruko y sus Tesos - El Preso
TTITLE3=Jesus Pagan y su Orquestra - Salsa De La Mata
TTITLE4=Joe Arroyo - En Barranquilla Me Quedo
TTITLE5=Davin Alvarez y Juegos de Manos - Cuida O Cuida O
TTITLE6=Chano Pozo y Dizzie Gillespie - Manteca
TTITLE7=Tony Canales - Rumba Para Los Rumberos
TTITLE8=Anthony G - Dejame Beber
TTITLE9=The Latin Brothers - Las Calenas Son Como Las Flores
TTITLE10=Sonora Carruseles - La Comay
TTITLE11=Isaac Delgado - El Macao
TTITLE12=Charlie Cajares - Quisiera Ser Demente
TTITLE13=Elio Reve y Su Charangon - Changui A La Loma Del Chivo
TTITLE14=Los Niches - Me Tienes Vigilado
TTITLE15=Hector Lavoe - Mi Gente
TTITLE16=Vanny Jordan - Protejete
TTITLE17=NG La Banda - Los Sitios Enteros
TTITLE18=Ocho y Media - A La Hora
TTITLE19=Quantic y Nickodemus - Mi Swing Es Trompical
EXTD=YEAR: 2015
EXTT0=
EXTT1=
EXTT2=
EXTT3=
EXTT4=
EXTT5=
EXTT6=
EXTT7=
EXTT8=
EXTT9=
EXTT10=
EXTT11=
EXTT12=
EXTT13=
EXTT14=
EXTT15=
EXTT16=
EXTT17=
EXTT18=
EXTT19=
PLAYORDER=
